<svg width="308" height="60" viewBox="0 0 308 60" fill="none" xmlns="http://www.w3.org/2000/svg">
<path d="M-0.00128901 19.2399C0.302044 15.2533 1.64538 11.8299 4.02871 8.96992C6.41204 6.06659 9.57538 3.85659 13.5187 2.33992C17.5054 0.77992 21.9687 -7.85589e-05 26.9087 -7.85589e-05C31.632 -7.85589e-05 35.7487 0.714921 39.2587 2.14492C42.7687 3.53159 45.4987 5.48159 47.4487 7.99492C49.3987 10.4649 50.3737 13.3466 50.3737 16.6399C50.3737 19.1966 49.637 21.5799 48.1637 23.7899C46.6904 25.9999 44.437 28.1233 41.4037 30.1599C38.3704 32.1966 34.4704 34.2116 29.7037 36.2049L18.1987 41.0149L18.0687 36.9199H51.6087V49.9199H1.42871V38.4799L22.4887 27.2349C25.522 25.6316 27.8404 24.3099 29.4437 23.2699C31.047 22.2299 32.152 21.2983 32.7587 20.4749C33.4087 19.6083 33.7337 18.6766 33.7337 17.6799C33.7337 16.5966 33.4304 15.6866 32.8237 14.9499C32.2604 14.2133 31.4154 13.6499 30.2887 13.2599C29.162 12.8266 27.8187 12.6099 26.2587 12.6099C24.092 12.6099 22.3154 12.9133 20.9287 13.5199C19.5854 14.1266 18.567 14.9283 17.8737 15.9249C17.1804 16.9216 16.7687 18.0266 16.6387 19.2399H-0.00128901ZM111.38 1.16992V16.1199H81.6103L89.1503 8.57992V49.9199H72.3803V1.16992H111.38ZM142.143 51.0899C136.206 51.0899 131.006 50.0283 126.543 47.9049C122.123 45.7816 118.678 42.8133 116.208 38.9999C113.738 35.1433 112.503 30.6583 112.503 25.5449C112.503 20.4316 113.738 15.9683 116.208 12.1549C118.678 8.29825 122.123 5.30825 126.543 3.18492C131.006 1.06159 136.206 -7.85589e-05 142.143 -7.85589e-05C148.08 -7.85589e-05 153.258 1.06159 157.678 3.18492C162.141 5.30825 165.608 8.29825 168.078 12.1549C170.548 15.9683 171.783 20.4316 171.783 25.5449C171.783 30.6583 170.548 35.1433 168.078 38.9999C165.608 42.8133 162.141 45.7816 157.678 47.9049C153.258 50.0283 148.08 51.0899 142.143 51.0899ZM142.143 36.1399C144.786 36.1399 147.061 35.7283 148.968 34.9049C150.875 34.0383 152.326 32.8249 153.323 31.2649C154.363 29.6616 154.883 27.7549 154.883 25.5449C154.883 23.3349 154.363 21.4499 153.323 19.8899C152.326 18.2866 150.875 17.0733 148.968 16.2499C147.061 15.3833 144.786 14.9499 142.143 14.9499C139.5 14.9499 137.225 15.3833 135.318 16.2499C133.411 17.0733 131.938 18.2866 130.898 19.8899C129.901 21.4499 129.403 23.3349 129.403 25.5449C129.403 27.7549 129.901 29.6616 130.898 31.2649C131.938 32.8249 133.411 34.0383 135.318 34.9049C137.225 35.7283 139.5 36.1399 142.143 36.1399ZM173.41 59.6049V35.0999H185.825L189.595 35.2299H221.835L226.125 35.0999H241.66V59.6049H225.93V49.9199H189.14V59.6049H173.41ZM183.16 1.16992H233.34V45.8899H216.57V8.18992L224.11 15.7299H192.065L198.825 10.0749C199.258 11.8083 199.497 13.4549 199.54 15.0149C199.627 16.5749 199.67 18.0483 199.67 19.4349C199.67 24.2883 199.193 28.3183 198.24 31.5249C197.287 34.7316 195.835 37.1366 193.885 38.7399C191.978 40.2999 189.552 41.0799 186.605 41.0799L179.585 35.3599C181.145 33.4099 182.293 30.8316 183.03 27.6249C183.81 24.4183 184.2 20.5183 184.2 15.9249C184.2 13.7149 184.113 11.3966 183.94 8.96992C183.767 6.54325 183.507 3.94325 183.16 1.16992ZM258.084 41.7299V28.4049H291.299V41.7299H258.084ZM286.164 1.16992L307.549 49.9199H289.674L272.839 8.57992H277.129L260.294 49.9199H242.419L263.804 1.16992H286.164Z" fill="#FF6B01"/>
</svg>
