<svg width="228" height="52" viewBox="0 0 228 52" fill="none" xmlns="http://www.w3.org/2000/svg">
<path d="M-0.00134451 20.0849V7.73492L36.3987 20.4099V33.4099L-0.00134451 46.0849V33.7349L26.9737 24.9599V28.8599L-0.00134451 20.0849ZM54.1076 19.2399C54.4109 15.2533 55.7543 11.8299 58.1376 8.96992C60.5209 6.06659 63.6843 3.85659 67.6276 2.33992C71.6143 0.77992 76.0776 -7.85589e-05 81.0176 -7.85589e-05C85.7409 -7.85589e-05 89.8576 0.714921 93.3676 2.14492C96.8776 3.53159 99.6076 5.48159 101.558 7.99492C103.508 10.4649 104.483 13.3466 104.483 16.6399C104.483 19.1966 103.746 21.5799 102.273 23.7899C100.799 25.9999 98.5459 28.1233 95.5126 30.1599C92.4793 32.1966 88.5793 34.2116 83.8126 36.2049L72.3076 41.0149L72.1776 36.9199H105.718V49.9199H55.5376V38.4799L76.5976 27.2349C79.6309 25.6316 81.9493 24.3099 83.5526 23.2699C85.1559 22.2299 86.2609 21.2983 86.8676 20.4749C87.5176 19.6083 87.8426 18.6766 87.8426 17.6799C87.8426 16.5966 87.5393 15.6866 86.9326 14.9499C86.3693 14.2133 85.5243 13.6499 84.3976 13.2599C83.2709 12.8266 81.9276 12.6099 80.3676 12.6099C78.2009 12.6099 76.4243 12.9133 75.0376 13.5199C73.6943 14.1266 72.6759 14.9283 71.9826 15.9249C71.2893 16.9216 70.8776 18.0266 70.7476 19.2399H54.1076ZM138.623 51.0899C132.946 51.0899 127.963 50.0283 123.673 47.9049C119.426 45.7816 116.111 42.8133 113.728 38.9999C111.388 35.1433 110.218 30.6583 110.218 25.5449C110.218 20.4316 111.388 15.9683 113.728 12.1549C116.111 8.29825 119.426 5.30825 123.673 3.18492C127.963 1.06159 132.946 -7.85589e-05 138.623 -7.85589e-05C144.3 -7.85589e-05 149.261 1.06159 153.508 3.18492C157.798 5.30825 161.113 8.29825 163.453 12.1549C165.836 15.9683 167.028 20.4316 167.028 25.5449C167.028 30.6583 165.836 35.1433 163.453 38.9999C161.113 42.8133 157.798 45.7816 153.508 47.9049C149.261 50.0283 144.3 51.0899 138.623 51.0899ZM138.688 37.5699C142.371 37.5699 145.231 36.5299 147.268 34.4499C149.348 32.3266 150.388 29.3583 150.388 25.5449C150.388 21.6883 149.348 18.7199 147.268 16.6399C145.231 14.5599 142.35 13.5199 138.623 13.5199C134.94 13.5199 132.058 14.5599 129.978 16.6399C127.898 18.7199 126.858 21.6666 126.858 25.4799C126.858 29.3366 127.898 32.3266 129.978 34.4499C132.058 36.5299 134.961 37.5699 138.688 37.5699ZM199.482 51.0899C193.805 51.0899 188.822 50.0283 184.532 47.9049C180.285 45.7816 176.97 42.8133 174.587 38.9999C172.247 35.1433 171.077 30.6583 171.077 25.5449C171.077 20.4316 172.247 15.9683 174.587 12.1549C176.97 8.29825 180.285 5.30825 184.532 3.18492C188.822 1.06159 193.805 -7.85589e-05 199.482 -7.85589e-05C205.158 -7.85589e-05 210.12 1.06159 214.367 3.18492C218.657 5.30825 221.972 8.29825 224.312 12.1549C226.695 15.9683 227.887 20.4316 227.887 25.5449C227.887 30.6583 226.695 35.1433 224.312 38.9999C221.972 42.8133 218.657 45.7816 214.367 47.9049C210.12 50.0283 205.158 51.0899 199.482 51.0899ZM199.547 37.5699C203.23 37.5699 206.09 36.5299 208.127 34.4499C210.207 32.3266 211.247 29.3583 211.247 25.5449C211.247 21.6883 210.207 18.7199 208.127 16.6399C206.09 14.5599 203.208 13.5199 199.482 13.5199C195.798 13.5199 192.917 14.5599 190.837 16.6399C188.757 18.7199 187.717 21.6666 187.717 25.4799C187.717 29.3366 188.757 32.3266 190.837 34.4499C192.917 36.5299 195.82 37.5699 199.547 37.5699Z" fill="#FF6B01"/>
</svg>
