<svg width="168" height="52" viewBox="0 0 168 52" fill="none" xmlns="http://www.w3.org/2000/svg">
<path d="M-0.000169579 20.0849V7.73492L36.3998 20.4099V33.4099L-0.000169579 46.0849V33.7349L26.9748 24.9599V28.8599L-0.000169579 20.0849ZM79.5238 51.0899C75.0604 51.0899 71.0954 50.4183 67.6288 49.0749C64.2054 47.6883 61.4538 45.8466 59.3738 43.5499C57.2938 41.2099 56.0371 38.6316 55.6038 35.8149H70.7488C71.3121 36.8549 72.2654 37.7216 73.6088 38.4149C74.9954 39.0649 76.8154 39.3899 79.0688 39.3899C81.8421 39.3899 84.1388 38.8916 85.9588 37.8949C87.7788 36.8983 89.1438 35.4249 90.0538 33.4749C91.0071 31.5249 91.4838 29.1199 91.4838 26.2599C91.4838 22.9666 90.9854 20.2583 89.9888 18.1349C88.9921 16.0116 87.5621 14.4299 85.6988 13.3899C83.8354 12.3499 81.6038 11.8299 79.0038 11.8299C77.3571 11.8299 75.9704 12.0466 74.8438 12.4799C73.7171 12.9133 72.8504 13.4983 72.2438 14.2349C71.6804 14.9283 71.3988 15.7299 71.3988 16.6399C71.3988 17.6799 71.6804 18.5466 72.2438 19.2399C72.8504 19.9333 73.7171 20.4749 74.8438 20.8649C75.9704 21.2116 77.3138 21.3849 78.8738 21.3849C81.0404 21.3849 83.1421 20.9949 85.1788 20.2149C87.2588 19.3916 89.2954 17.9833 91.2888 15.9899L96.4888 19.3699C95.2321 22.0566 93.5854 24.4399 91.5488 26.5199C89.5121 28.5999 87.0854 30.2249 84.2688 31.3949C81.4521 32.5649 78.1804 33.1499 74.4538 33.1499C70.2938 33.1499 66.7404 32.4783 63.7938 31.1349C60.8471 29.7483 58.5938 27.8633 57.0338 25.4799C55.4738 23.0533 54.6721 20.3016 54.6288 17.2249C54.6721 13.9316 55.6254 10.9849 57.4888 8.38492C59.3521 5.78492 62.1038 3.74825 65.7438 2.27492C69.4271 0.758254 73.9554 -7.85589e-05 79.3288 -7.85589e-05C85.5688 -7.85589e-05 90.7254 1.10492 94.7988 3.31492C98.8721 5.48159 101.905 8.49325 103.899 12.3499C105.935 16.1633 106.932 20.5399 106.889 25.4799C106.932 30.4199 105.935 34.8183 103.899 38.6749C101.862 42.5316 98.8071 45.5649 94.7338 47.7749C90.7038 49.9849 85.6338 51.0899 79.5238 51.0899ZM139.449 51.0899C133.773 51.0899 128.789 50.0283 124.499 47.9049C120.253 45.7816 116.938 42.8133 114.554 38.9999C112.214 35.1433 111.044 30.6583 111.044 25.5449C111.044 20.4316 112.214 15.9683 114.554 12.1549C116.938 8.29825 120.253 5.30825 124.499 3.18492C128.789 1.06159 133.773 -7.85589e-05 139.449 -7.85589e-05C145.126 -7.85589e-05 150.088 1.06159 154.334 3.18492C158.624 5.30825 161.939 8.29825 164.279 12.1549C166.663 15.9683 167.854 20.4316 167.854 25.5449C167.854 30.6583 166.663 35.1433 164.279 38.9999C161.939 42.8133 158.624 45.7816 154.334 47.9049C150.088 50.0283 145.126 51.0899 139.449 51.0899ZM139.514 37.5699C143.198 37.5699 146.058 36.5299 148.094 34.4499C150.174 32.3266 151.214 29.3583 151.214 25.5449C151.214 21.6883 150.174 18.7199 148.094 16.6399C146.058 14.5599 143.176 13.5199 139.449 13.5199C135.766 13.5199 132.884 14.5599 130.804 16.6399C128.724 18.7199 127.684 21.6666 127.684 25.4799C127.684 29.3366 128.724 32.3266 130.804 34.4499C132.884 36.5299 135.788 37.5699 139.514 37.5699Z" fill="#FF6B01"/>
</svg>
