<svg width="100" height="100" viewBox="0 0 100 100" fill="none" xmlns="http://www.w3.org/2000/svg">
<path d="M89.8438 40.5L92.9062 42.25V43.5562L92.0313 46.6125L54.925 55.3437L51.4375 46.675L89.8438 40.5Z" fill="#FF6B01"/>
<path d="M75.9687 14.8313L80.2375 15.725L81.375 17.125L82.4562 20.4688L82.0063 22.6063L57.1125 56.65L48.8125 48.3563L71.7687 18.2313L75.9687 14.8313Z" fill="#FF6B01"/>
<path d="M54.4938 9.51245L57.1125 7.76245L59.2938 8.63745L61.475 11.7L55.4937 47.625L51.4313 44.8687L49.6875 40.0625L52.75 13L54.4938 9.51245Z" fill="#FF6B01"/>
<path d="M26.4922 10.0875L29.1797 6.65L30.9359 6.25L34.4234 6.75625L36.1422 8.10625L48.6672 35.8688L53.1922 49.0563L47.8922 52L27.6984 15.35L26.4922 10.0875Z" fill="#FF6B01"/>
<path d="M13.4609 29.1562L12.5859 25.6562L15.2109 22.6062L18.2609 23.0437H19.1359L37.4672 36.575L43.1422 40.9375L50.9984 47.0499L46.6359 54.4687L42.7047 51.4124L40.0859 48.7937L14.7734 30.8999L13.4609 29.1562Z" fill="#FF6B01"/>
<path d="M8.225 51.85L6.25 49.6626V47.7251L8.225 47.05L30.4875 48.3625L52.3063 50.1063L51.6 54.45L9.975 52.2876L8.225 51.85Z" fill="#FF6B01"/>
<path d="M21.3188 74.5688H16.9563L15.2188 72.5688V70.1813L22.6313 64.9438L52.7562 45.7688L55.8 50.975L21.3188 74.5688Z" fill="#FF6B01"/>
<path d="M29.6125 86.7687L27.8625 87.2062L25.25 85.8937L25.6875 83.7062L51.4375 49.6687L54.925 54.4687L35.725 79.7812L29.6125 86.7687Z" fill="#FF6B01"/>
<path d="M51.4367 91.1314L50.1242 92.8813L47.5055 93.7564L45.3242 92.0063L44.0117 89.3813L50.5617 54.0376L54.493 54.4751L51.4367 91.1314Z" fill="#FF6B01"/>
<path d="M73.693 81.5312V85.0187L73.2555 86.3312L71.5117 87.2062L68.4555 86.7937L47.4805 55.5687L55.7992 49.2312L62.7805 61.8875L63.4367 66.4687L73.693 81.5312Z" fill="#FF6B01"/>
<path d="M83.7359 76.2937L84.1734 78.4749L82.8609 80.2187L81.5484 79.7812L74.1297 74.5437L62.7859 64.5062L54.0547 58.3937L56.6734 50.1062L61.0359 52.7249L63.6609 57.525L83.7359 76.2937Z" fill="#FF6B01"/>
<path d="M78.0609 54.0313L88.9734 54.9063L91.5922 56.6563L93.3359 59.2688V61.1563L88.5359 63.2001L64.0922 57.0875L54.0547 56.65L56.6734 47.4875L63.6547 52.725L78.0609 54.0313Z" fill="#FF6B01"/>
</svg>
