<svg width="40" height="40" viewBox="0 0 40 40" fill="none" xmlns="http://www.w3.org/2000/svg">
<g clip-path="url(#clip0_3265_188)">
<path d="M39.1864 20C39.1864 9.62118 30.7728 1.20752 20.394 1.20752C10.0152 1.20752 1.60156 9.62118 1.60156 20C1.60156 30.3787 10.0152 38.7924 20.394 38.7924C30.7728 38.7924 39.1864 30.3787 39.1864 20Z" stroke="white" stroke-width="1.47549"/>
<path d="M14.2556 24.7401C13.6935 25.3023 13.6935 26.2138 14.2556 26.776C14.8178 27.3381 15.7293 27.3381 16.2914 26.776L15.2736 25.7581L14.2556 24.7401ZM28.2291 14.242C28.2291 13.447 27.5846 12.8025 26.7896 12.8025H13.834C13.039 12.8025 12.3945 13.447 12.3945 14.242C12.3945 15.037 13.039 15.6815 13.834 15.6815H25.35V27.1975C25.35 27.9925 25.9945 28.637 26.7896 28.637C27.5846 28.637 28.2291 27.9925 28.2291 27.1975V14.242ZM15.2736 25.7581L16.2914 26.776L27.8074 15.26L26.7896 14.242L25.7717 13.2241L14.2556 24.7401L15.2736 25.7581Z" fill="white"/>
</g>
<defs>
<clipPath id="clip0_3265_188">
<rect width="40" height="40" fill="white"/>
</clipPath>
</defs>
</svg>
