<svg width="100" height="100" viewBox="0 0 100 100" fill="none" xmlns="http://www.w3.org/2000/svg">
<g clip-path="url(#clip0_3065_452)">
<path d="M44.3349 -0.000976562C42.7128 0.0781901 39.0778 1.13236 35.6487 2.73652C32.2196 4.36152 20.1169 11.7407 19.8815 29.9699C20.1841 47.2407 36.0479 76.599 46.7639 86.0324C46.7639 86.0324 29.362 57.0657 28.1097 31.8115C26.8406 6.56152 44.3349 -0.000976562 44.3349 -0.000976562ZM55.593 -0.000976562C55.593 -0.000976562 73.0706 6.56152 71.8183 31.8115C70.5618 57.0657 53.1641 86.0324 53.1641 86.0324C63.8674 76.599 79.7397 47.2407 80.0422 29.9699C79.8027 11.7407 67.7042 4.36152 64.2751 2.73652C60.8459 1.13236 57.2109 0.0781901 55.593 -0.000976562ZM49.7938 0.0781901C48.9765 0.0702416 48.1718 0.277275 47.4615 0.67819C41.0277 4.12402 37.0145 16.5907 38.1407 36.0824C38.9181 49.5907 42.3809 66.4615 48.3188 86.0324H51.2604C57.1983 66.4615 60.6736 49.6074 61.4511 36.099C62.5773 16.6115 58.5599 4.12402 52.1261 0.67819C51.4158 0.277275 50.611 0.0702416 49.7938 0.0781901ZM29.0636 4.44069C29.0636 4.44069 10.2624 12.1199 13.994 34.2699C17.7089 56.4365 37.4767 80.0824 43.3516 85.1032C45.4654 87.0073 19.0747 57.8199 16.5155 32.1907C15.2926 22.5115 18.1544 11.774 29.0636 4.44069ZM70.9442 4.44069C81.8492 11.774 84.711 22.5115 83.4882 32.1907C80.9331 57.8199 54.5424 87.0073 56.652 85.1032C62.5269 80.0824 82.2989 56.4365 86.0138 34.2699C89.7454 12.1199 70.9442 4.44069 70.9442 4.44069ZM42.3052 91.024L44.3181 99.999H55.24L57.2908 91.024H42.3052Z" fill="black"/>
</g>
<defs>
<clipPath id="clip0_3065_452">
<rect width="100" height="100" fill="white"/>
</clipPath>
</defs>
</svg>
