<svg width="100" height="100" viewBox="0 0 100 100" fill="none" xmlns="http://www.w3.org/2000/svg">
<g clip-path="url(#clip0_3065_477)">
<g clip-path="url(#clip1_3065_477)">
<path d="M96.3711 6.58105H96.6836C97.0742 6.63965 97.5234 7.0498 97.6992 7.51855C97.8555 8.00684 104.223 40.2139 95.1211 58.749C86.0391 77.2842 65.9414 82.8896 54.3789 82.8115C34.9258 83.1045 18.0312 76.1514 10.2578 60.3311C18.6953 60.0381 21.5078 51.874 21.6445 45.0771C21.6836 42.9678 24.9648 20.1162 25.7266 19.1201C25.9414 18.8662 26.2344 19.0029 26.3906 19.2178C29.5547 24.1592 32.4648 26.7178 36.7227 29.042C43.5 31.9717 47.9141 33.0459 57.9336 31.2686C67.9336 29.4912 84.418 23.5537 95.2188 7.34277C95.6289 6.81543 96.0195 6.62012 96.3711 6.58105Z" fill="#8C8073"/>
<path d="M61.0391 30.3115C54.3594 30.3115 48.7539 34.8623 46.9766 41.0928C45.4531 36.2295 41.332 32.7334 36.4687 32.7334C30.3164 32.7334 25.3164 38.3193 25.3164 45.2334C25.3164 52.1279 30.3164 57.7334 36.4687 57.7334C41.332 57.7334 45.4531 54.2568 46.9766 49.3936C48.7344 55.6436 54.3594 60.2139 61.0391 60.2139C69.125 60.2139 75.6875 53.5147 75.6875 45.2725C75.6875 36.9912 69.125 30.3115 61.0391 30.3115Z" fill="white"/>
<path d="M79.4167 66.8545C79.0846 67.0107 78.3229 66.6396 77.5807 66.2099C70.8034 74.9404 61.0963 78.1826 49.9049 77.7138C40.6667 77.3427 42.2096 74.667 44.2409 74.9404C59.1432 77.0498 68.4987 72.3427 74.7292 64.3154C74.026 63.8466 73.1471 63.2607 72.4245 62.7529C71.7409 62.2841 72.5612 61.542 74.026 61.4834C74.9049 61.4443 76.0182 61.6787 77.2096 62.3427C80.3346 64.1592 80.4518 66.3857 79.4167 66.8545ZM0.33462 48.2802C1.70181 54.9013 6.97525 59.4131 12.112 58.3388C17.2487 57.2646 20.2956 51.0341 18.9284 44.4131C17.5612 37.792 12.2877 33.2802 7.15103 34.3545C2.01431 35.4092 -1.03257 41.6592 0.33462 48.2802ZM45.5885 45.6826C45.5885 50.1943 42.5807 53.8467 38.8698 53.8467C35.1588 53.8467 32.151 50.1943 32.151 45.6826C32.151 41.1709 35.1588 37.5185 38.8698 37.5185C42.5807 37.5185 45.5885 41.1904 45.5885 45.6826ZM41.9557 41.1709C41.9557 39.4912 40.5885 38.1045 38.8893 38.1045C37.2096 38.1045 35.8229 39.4717 35.8229 41.1709C35.8229 42.8506 37.1901 44.2373 38.8893 44.2373C40.5885 44.2373 41.9557 42.8701 41.9557 41.1709ZM73.6354 45.7998C73.6354 51.2881 69.5729 55.7412 64.5729 55.7412C59.5729 55.7412 55.5104 51.2881 55.5104 45.7998C55.5104 40.3115 59.5729 35.8584 64.5729 35.8584C69.5924 35.8584 73.6354 40.3115 73.6354 45.7998ZM68.4792 40.3896C68.4792 38.2412 66.7409 36.5029 64.5924 36.5029C62.444 36.5029 60.7057 38.2412 60.7057 40.3896C60.7057 42.5381 62.444 44.2763 64.5924 44.2763C66.7213 44.2763 68.4792 42.5381 68.4792 40.3896ZM98.5378 93.2802C97.8542 92.0302 96.4479 90.8584 94.5534 90.4287C92.6588 89.999 89.7096 89.9404 87.776 87.5966C85.8229 85.2529 85.276 81.3271 87.737 78.749C90.6276 75.6631 98.8893 77.9091 99.8268 85.7216C100.237 89.2568 99.1042 94.3349 98.5378 93.2802Z" fill="black"/>
<path d="M8.46094 45.292C11.3194 45.292 13.6367 42.9747 13.6367 40.1162C13.6367 37.2577 11.3194 34.9404 8.46094 34.9404C5.60243 34.9404 3.28516 37.2577 3.28516 40.1162C3.28516 42.9747 5.60243 45.292 8.46094 45.292Z" fill="white"/>
<path d="M93.1866 78.9638C93.6748 78.163 96.3897 79.2567 96.9756 79.6669C95.8038 77.7724 89.6905 75.3505 86.9756 78.3583C84.2412 81.3661 86.7608 86.5224 87.7764 87.8505C87.4834 87.0302 86.878 84.6669 87.503 84.2177C88.128 83.7685 89.5733 86.3271 90.7842 85.5849C91.9756 84.8427 89.6514 82.8114 90.8233 81.8349C92.0342 80.8778 93.6944 83.5731 94.71 82.3622C95.5889 81.3075 92.7373 79.706 93.1866 78.9638Z" fill="#8C8073"/>
<path d="M74.1626 69.9208C71.5845 68.8466 68.0298 72.4989 69.3774 73.495C71.4282 74.8231 78.6157 79.3935 80.1196 80.2138C81.8774 81.1513 84.3774 79.4716 84.3774 79.4716L85.1587 78.0067C85.1587 78.0067 85.1196 74.9989 83.3813 74.0614C82.2485 73.456 77.5024 71.3856 74.1626 69.9208Z" fill="#F2840D"/>
<path d="M82.2684 80.0772C82.6004 81.2296 83.7528 80.7022 84.4559 81.0929C85.159 81.4835 85.3153 82.7335 86.4676 82.4014C87.6199 82.0694 89.1434 79.335 88.8114 78.1827C88.4793 77.0303 87.327 77.5577 86.6238 77.1671C85.9207 76.7764 85.7645 75.5264 84.6121 75.8585C83.4598 76.1905 81.9559 78.9249 82.2684 80.0772Z" fill="#BBBBBB"/>
</g>
</g>
<defs>
<clipPath id="clip0_3065_477">
<rect width="100" height="100" fill="white"/>
</clipPath>
<clipPath id="clip1_3065_477">
<rect width="100" height="100" fill="white" transform="translate(0.00390625 -0.000976562)"/>
</clipPath>
</defs>
</svg>
