<svg width="100" height="100" viewBox="0 0 100 100" fill="none" xmlns="http://www.w3.org/2000/svg">
<g clip-path="url(#clip0_3065_424)">
<path d="M17.7344 1.25H82.3438C92.1094 1.25 100.078 9.14062 100.078 18.9844V81.0938C100.078 90.8594 92.1875 98.8281 82.3438 98.8281H17.7344C7.89063 98.75 0 90.8594 0 81.0156V18.9844C0 9.14062 7.89063 1.25 17.7344 1.25Z" fill="#330000"/>
<path d="M48.3584 59.6094H32.8115L29.6865 69.375C29.6084 69.7656 29.2959 70 28.9053 69.9219H21.0928C20.624 69.9219 20.5459 69.6875 20.624 69.1406L34.0615 30.5469C34.2178 30.1562 34.2959 29.6875 34.4522 29.1406C34.6084 28.2812 34.6865 27.3438 34.6865 26.4062C34.6084 26.1719 34.8428 26.0156 34.999 25.9375H45.7803C46.0928 25.9375 46.249 26.0937 46.3272 26.25L61.5616 69.1406C61.7178 69.6094 61.5616 69.8438 61.1709 69.8438H52.4209C52.1084 69.9219 51.874 69.6875 51.7178 69.375L48.3584 59.6094ZM35.2334 51.0938H45.7803C45.5459 50.2344 45.2334 49.1406 44.8428 48.125C44.4522 47.0312 44.0615 45.7812 43.749 44.5312C43.3584 43.2031 42.9678 41.9531 42.5772 40.7031C42.1865 39.375 41.7959 38.2031 41.4834 37.0313C41.1709 35.8594 40.8584 34.7656 40.5459 33.75H40.4678C40.0772 35.5469 39.6084 37.3437 39.0615 39.1406C38.4365 41.1719 37.8115 43.2031 37.1084 45.3125C36.4834 47.4219 35.8584 49.375 35.2334 51.0938ZM70.8584 33.3594C69.4522 33.4375 68.124 32.8906 67.1865 31.875C66.249 30.8594 65.7022 29.4531 65.7803 28.0469C65.7022 26.6406 66.249 25.3125 67.2647 24.375C68.2803 23.4375 69.6084 22.8906 70.9365 22.8906C72.5772 22.8906 73.8272 23.3594 74.7647 24.375C75.7022 25.3906 76.1709 26.7188 76.1709 28.0469C76.249 29.4531 75.7022 30.8594 74.6865 31.875C73.6709 32.8906 72.2647 33.4375 70.8584 33.3594ZM66.1709 69.5312V37.4219C66.1709 37.0313 66.3272 36.875 66.7178 36.875H74.999C75.3897 36.875 75.5459 37.1094 75.5459 37.4219V69.5312C75.5459 70 75.3897 70.2344 74.999 70.2344H66.7959C66.4053 70.1562 66.1709 69.9219 66.1709 69.5312Z" fill="#FF9A00"/>
</g>
<defs>
<clipPath id="clip0_3065_424">
<rect width="100" height="100" fill="white"/>
</clipPath>
</defs>
</svg>
