<svg width="100" height="100" viewBox="0 0 100 100" fill="none" xmlns="http://www.w3.org/2000/svg">
<g clip-path="url(#clip0_3065_442)">
<path d="M83.3927 0H16.6067C7.43938 0 0.0078125 7.61116 0.0078125 17V82.84C0.0078125 92.2289 7.43938 99.84 16.6067 99.84H83.3927C92.56 99.84 99.9915 92.2289 99.9915 82.84V17C99.9915 7.61116 92.56 0 83.3927 0Z" fill="#49021F"/>
<path d="M36.3184 26.1187V69.8763C36.3184 70.3344 36.1171 70.5635 35.7146 70.5635H27.5987C27.2405 70.5635 27.0617 70.3344 27.0625 69.8763V26.1187C27.0625 25.7526 27.2636 25.5694 27.6659 25.5691H35.7818C35.85 25.5592 35.9196 25.5646 35.9855 25.585C36.0515 25.6055 36.1124 25.6404 36.1639 25.6873C36.2153 25.7342 36.2562 25.7921 36.2837 25.8569C36.3111 25.9216 36.3244 25.9917 36.3227 26.0623L36.3184 26.1187ZM60.7621 71.2459L60.3301 71.2503C57.243 71.2985 54.1842 70.6415 51.3761 69.3271C48.7601 68.0871 46.5732 66.0629 45.1049 63.5223C43.6213 60.9986 42.8615 57.8532 42.8256 54.0863L42.8244 53.8023C42.7992 50.6495 43.5859 47.5456 45.1053 44.8035C46.6282 42.0853 48.8493 39.8465 51.5273 38.3303L51.7452 38.2087C54.651 36.5602 58.1611 35.7359 62.2755 35.7359L62.3622 35.7363L62.5548 35.7407L62.7727 35.7495L63.016 35.7623L63.2843 35.7795L63.5777 35.8015L64.2404 35.8571L64.4217 35.8731V22.3411C64.4217 22.0208 64.5558 21.8604 64.8239 21.8599H73.2753C73.3299 21.8519 73.3857 21.857 73.4381 21.8748C73.4904 21.8927 73.538 21.9228 73.5771 21.9628C73.6161 22.0028 73.6455 22.0515 73.663 22.1052C73.6804 22.1588 73.6854 22.2159 73.6776 22.2719V62.8699C73.6802 63.7181 73.7138 64.5659 73.7783 65.4115L73.8416 66.2971L73.8975 67.1215L73.9459 67.8843C73.9542 68.027 73.9202 68.1689 73.8484 68.2916C73.7767 68.4142 73.6704 68.5117 73.5436 68.5715C71.3633 69.5026 69.0924 70.1933 66.7693 70.6319C64.7872 71.0069 62.7779 71.2123 60.7625 71.2459M64.422 62.7323V43.9791C64.0596 43.8785 63.6894 43.8096 63.3156 43.7731C62.8587 43.7258 62.3997 43.7029 61.9404 43.7043C60.3126 43.6879 58.7042 44.0643 57.2455 44.8035C55.8247 45.5273 54.6115 46.6161 53.7242 47.9635C52.8071 49.3371 52.3488 51.146 52.349 53.3903C52.3165 54.8876 52.5553 56.3781 53.0532 57.7863C53.4586 58.9211 54.0994 59.9523 54.9314 60.8091C55.7279 61.5973 56.6923 62.1852 57.7485 62.5263C58.8641 62.8961 60.0301 63.0818 61.2027 63.0763C61.8283 63.0763 62.4096 63.0532 62.9465 63.0071C63.3748 62.9741 63.7994 62.9018 64.215 62.7911L64.422 62.7323Z" fill="#FF3366"/>
</g>
<defs>
<clipPath id="clip0_3065_442">
<rect width="100" height="100" fill="white"/>
</clipPath>
</defs>
</svg>
