<svg width="100" height="100" viewBox="0 0 100 100" fill="none" xmlns="http://www.w3.org/2000/svg">
<g clip-path="url(#clip0_3065_472)">
<g clip-path="url(#clip1_3065_472)">
<path d="M102.889 76.1169C103.199 76.9202 102.944 77.5926 102.256 78.1449C95.8114 83.3183 89.0464 88.0113 81.6829 91.8085L75.535 94.9748C76.803 95.9847 78.2341 96.2688 79.7537 96.2122C81.4172 96.1501 82.8108 95.3884 84.0976 94.4094C85.636 93.2393 87.0905 91.9449 88.7066 90.8959C92.6194 88.3561 96.8367 88.5856 100.538 91.4496C102.11 92.6664 103.555 94.0562 105.186 95.1823C105.975 95.7267 106.985 96.0234 107.953 96.237L108.167 96.2833C109.342 96.53 110.055 97.1197 109.977 98.1314C109.9 99.1351 109.102 99.7216 107.898 99.644C105.346 99.4795 103.346 98.1674 101.472 96.5805C100.301 95.5898 99.1712 94.5337 97.9079 93.6744C95.5654 92.0814 93.08 92.0351 90.6935 93.5646C89.2872 94.466 88.0084 95.5688 86.6922 96.6057C84.5709 98.2776 82.2813 99.5085 79.488 99.5505C76.4244 99.5968 73.9587 98.2258 71.7001 96.3421C70.8922 95.6683 70.0923 94.9847 69.269 94.33C66.1829 91.8748 63.0208 91.8762 59.9239 94.3318C59.5635 94.6186 59.2054 94.9083 58.8499 95.201L58.1376 95.7851C57.5461 96.2741 56.9448 96.7512 56.334 97.216C52.5431 100.073 48.2016 100.21 44.2734 97.5342C42.8442 96.5608 41.541 95.4029 40.1779 94.3318C37.0805 91.8996 34.5098 91.9066 31.3572 94.3216L31.0994 94.5197L30.3263 95.1155C29.2953 95.9099 28.2574 96.6973 27.1679 97.4034C23.0631 100.065 18.8847 99.9538 14.8046 97.3814C13.1163 96.3169 11.5751 95.0206 9.97579 93.8155L9.7354 93.6351C9.09719 93.1599 8.46646 92.673 7.81137 92.222C6.89762 91.5931 5.91357 91.4174 4.92391 92.0164C3.17513 93.0753 1.44696 94.1678 -0.284954 95.2538C-1.92174 96.28 -3.50324 97.408 -5.20516 98.3108C-6.12735 98.7996 -7.2351 99.0272 -8.28615 99.1613C-9.26457 99.2856 -9.93747 98.5613 -9.97495 97.6473C-10.0115 96.7473 -9.42202 96.1818 -8.50592 95.922L-8.4525 95.9076C-7.47877 95.6477 -6.47551 95.3178 -5.63064 94.7884C-3.24692 93.2935 -0.936764 91.6814 1.39963 90.1118C1.46617 90.0674 1.5046 89.9828 1.58379 89.8814L0.133499 87.1459C-0.351336 86.2331 -0.834455 85.3188 -1.31585 84.4029C-2.15932 82.7963 -1.6106 81.7188 0.200975 81.5898C5.0851 81.2417 9.97251 80.9431 14.8585 80.6295L42.9838 78.8295C49.6317 78.4029 56.2792 77.972 62.9271 77.5445C72.3014 76.9414 81.6761 76.3385 91.051 75.7361C93.5439 75.5762 96.0368 75.4202 98.5297 75.2576L101.023 75.0926C101.881 75.0351 102.57 75.2935 102.889 76.1169ZM95.7566 78.9576L95.6727 78.7533L2.60719 84.7286L2.8368 85.1566C3.44035 86.2837 3.97454 87.3015 4.55794 88.2903C4.61183 88.3814 4.8002 88.4001 4.99748 88.4071L5.19897 88.4118L5.25942 88.4141L5.31659 88.4174C6.12538 88.4767 7.00914 88.3347 7.72749 88.6174C8.87366 89.0688 9.96923 89.7155 10.9795 90.4286C12.7883 91.7057 14.4621 93.1767 16.2933 94.4174C19.5482 96.6211 22.6132 96.5557 25.8151 94.3211C27.1661 93.3781 28.4477 92.3361 29.7864 91.3744C33.9719 88.3674 37.9371 88.4295 42.0228 91.5692C43.2167 92.487 44.3549 93.4767 45.5466 94.3968C48.5352 96.7043 51.5675 96.7127 54.5407 94.4206C55.5308 93.6576 56.4736 92.8333 57.4455 92.0459C61.8531 88.4753 66.3206 88.1309 70.6551 91.3155L70.7863 91.4127C72.1733 92.4557 73.2056 92.4034 74.588 91.716L75.2609 91.3804C81.4261 88.2977 87.4747 85.022 93.0589 80.9515C93.9624 80.2926 94.8578 79.6225 95.7566 78.9576ZM9.33757 0.314555C19.4104 4.84633 28.4561 10.9426 36.6775 18.2697C46.9069 27.3875 54.9695 38.1538 60.9243 50.4674C64.0583 56.9487 66.4959 63.6805 67.6158 70.8281L67.6692 71.1786L67.7508 71.7384C67.7522 73.1216 66.6411 73.9342 65.4828 73.4674C59.7322 71.1501 53.7942 69.5431 47.658 68.6253C39.5491 67.4122 31.5418 67.7141 23.6582 70.0809C18.4301 71.651 13.457 73.7921 8.83571 76.7141C7.9824 77.2538 7.07755 77.1594 6.52087 76.4991C5.94169 75.8136 5.94263 74.9861 6.61131 74.2622C11.4392 69.0347 14.2484 62.7566 16.1111 56.0061C17.9306 49.4104 18.5951 42.6706 18.1874 35.8519C17.8814 30.7272 16.649 25.7683 15.0361 20.9005C12.9495 14.6029 10.242 8.58278 6.97728 2.80848C6.44402 1.86455 6.45386 1.12951 6.99321 0.52577C7.5513 -0.0994639 8.27012 -0.165819 9.33757 0.314555ZM40.3911 12.0865C41.325 12.358 42.5832 12.6262 43.7669 13.0851C48.4917 14.9192 52.5623 17.829 56.4404 21.008C62.7429 26.1744 68.5136 31.8889 73.6747 38.1912C77.2665 42.5776 80.213 47.4029 82.8994 52.3832C85.9452 58.0314 88.5689 63.8702 90.7952 69.8851L90.9498 70.3052C91.0088 70.465 91.0693 70.6244 91.1232 70.7856C91.3579 71.4809 91.3289 72.1538 90.7825 72.6851C90.2249 73.2276 89.5557 73.2636 88.8496 72.9879L88.8004 72.9683C87.7882 72.5534 86.762 72.1706 85.7522 71.7515L85.3201 71.5697C82.4777 70.3529 79.5565 70.1099 76.5481 70.7912C76.2707 70.8543 75.9895 70.9019 75.7084 70.9449C74.5922 71.1164 73.8949 70.6814 73.5904 69.6038C70.6602 59.2365 66.5292 49.365 61.2992 39.9463L61.0377 39.4772C57.6657 33.4692 53.8055 27.8192 48.7887 23.0192C45.8268 20.1842 42.7097 17.5417 39.267 15.2973C38.4694 14.7772 38.1705 14.0552 38.4329 13.2674C38.6915 12.4926 39.2946 12.1879 40.3911 12.0865ZM12.3497 5.50801C12.359 5.77016 12.4298 5.9753 12.5254 6.16689C14.7147 10.5702 16.6185 15.0931 18.1644 19.7599C19.6311 24.187 20.7557 28.6991 21.2946 33.3393C21.8977 38.5328 21.6498 43.7132 20.9352 48.8786C19.9947 55.6814 18.1026 62.1879 14.8393 68.265L14.4597 68.973L13.8843 70.0491C14.0047 70.0818 14.0661 70.1206 14.1055 70.1052C14.4494 69.9702 14.7907 69.8289 15.1294 69.6814C22.0551 66.6496 29.2719 64.8188 36.8519 64.6305C45.5067 64.4155 53.8898 65.9716 62.0761 68.6819L62.6352 68.8669C63.04 68.9996 63.4721 69.1361 64.0316 69.3169C60.7153 54.8412 53.8406 42.3987 44.5747 31.2061C35.642 20.4164 24.7772 11.9856 12.3497 5.50801ZM53.4751 23.0589L53.5848 23.1828L53.8027 23.4248C53.887 23.5192 53.9634 23.608 54.0351 23.7005C54.545 24.3566 55.0612 25.0077 55.5838 25.6538L56.4362 26.7108C57.7163 28.3015 58.9806 29.9033 60.0921 31.6033C67.1233 42.3575 72.2938 53.9861 76.0626 66.2407L76.1765 66.6122C76.3724 67.2538 76.6413 67.4342 77.2683 67.3398L77.3119 67.3328C80.1314 66.8646 82.8872 67.108 85.5591 68.1342L85.6973 68.1879C85.9527 68.2889 86.2254 68.3449 86.7203 68.4893C83.1004 59.4823 78.8222 51.0982 73.4085 43.2828C68.7273 36.5248 56.192 24.5258 53.4747 23.0585" fill="#1A222D"/>
</g>
</g>
<defs>
<clipPath id="clip0_3065_472">
<rect width="100" height="100" fill="white"/>
</clipPath>
<clipPath id="clip1_3065_472">
<rect width="120" height="100" fill="white" transform="translate(-9.99609 -0.000976562)"/>
</clipPath>
</defs>
</svg>
