<svg width="44" height="20" viewBox="0 0 44 20" fill="none" xmlns="http://www.w3.org/2000/svg">
<path d="M10.9266 19.6502C8.74323 19.6502 6.82656 19.2419 5.17656 18.4252C3.54323 17.6085 2.26823 16.4669 1.35156 15.0002C0.451563 13.5169 0.00156255 11.7919 0.00156255 9.82519C0.00156255 7.85853 0.451563 6.14186 1.35156 4.67519C2.26823 3.19186 3.54323 2.04186 5.17656 1.22519C6.82656 0.408528 8.74323 0.000195146 10.9266 0.000195146C13.1099 0.000195146 15.0182 0.408528 16.6516 1.22519C18.3016 2.04186 19.5766 3.19186 20.4766 4.67519C21.3932 6.14186 21.8516 7.85853 21.8516 9.82519C21.8516 11.7919 21.3932 13.5169 20.4766 15.0002C19.5766 16.4669 18.3016 17.6085 16.6516 18.4252C15.0182 19.2419 13.1099 19.6502 10.9266 19.6502ZM10.9516 14.4502C12.3682 14.4502 13.4682 14.0502 14.2516 13.2502C15.0516 12.4335 15.4516 11.2919 15.4516 9.82519C15.4516 8.34186 15.0516 7.20019 14.2516 6.40019C13.4682 5.6002 12.3599 5.2002 10.9266 5.2002C9.5099 5.2002 8.40156 5.6002 7.60156 6.40019C6.80156 7.20019 6.40156 8.33353 6.40156 9.80019C6.40156 11.2835 6.80156 12.4335 7.60156 13.2502C8.40156 14.0502 9.51823 14.4502 10.9516 14.4502ZM23.7838 6.7002C23.8505 5.48353 24.2671 4.37519 25.0338 3.37519C25.8171 2.35853 26.9505 1.54186 28.4338 0.925195C29.9338 0.308528 31.7671 0.000195146 33.9338 0.000195146C35.7505 0.000195146 37.3338 0.225195 38.6838 0.675194C40.0338 1.12519 41.0838 1.75019 41.8338 2.5502C42.5838 3.35019 42.9588 4.28353 42.9588 5.35019C42.9588 6.18353 42.7005 6.9502 42.1838 7.6502C41.6838 8.35019 40.8671 8.90853 39.7338 9.3252C38.6005 9.72519 37.1005 9.91686 35.2338 9.9002V9.35019C36.9338 9.26686 38.3838 9.36686 39.5838 9.65019C40.8005 9.93353 41.7338 10.4085 42.3838 11.0752C43.0338 11.7419 43.3588 12.6169 43.3588 13.7002C43.3588 14.8502 42.9755 15.8752 42.2088 16.7752C41.4421 17.6585 40.3255 18.3585 38.8588 18.8752C37.3921 19.3919 35.6088 19.6502 33.5088 19.6502C31.4755 19.6502 29.7005 19.3752 28.1838 18.8252C26.6671 18.2752 25.4838 17.4919 24.6338 16.4752C23.8005 15.4585 23.3588 14.2585 23.3088 12.8752H29.7088C29.8088 13.4919 30.1505 13.9669 30.7338 14.3002C31.3338 14.6335 32.2588 14.8002 33.5088 14.8002C34.5421 14.8002 35.3505 14.6669 35.9338 14.4002C36.5171 14.1169 36.8088 13.7169 36.8088 13.2002C36.8088 12.9002 36.7171 12.6502 36.5338 12.4502C36.3671 12.2502 36.0421 12.1085 35.5588 12.0252C35.0921 11.9252 34.4171 11.8752 33.5338 11.8752H30.4338V7.7002H33.5338C34.7005 7.7002 35.4838 7.57519 35.8838 7.32519C36.3005 7.07519 36.5088 6.73353 36.5088 6.30019C36.5088 5.81686 36.2505 5.45853 35.7338 5.22519C35.2338 4.9752 34.5171 4.8502 33.5838 4.8502C32.5005 4.8502 31.6838 5.01686 31.1338 5.35019C30.6005 5.66686 30.2838 6.11686 30.1838 6.7002H23.7838Z" fill="#FF6B01"/>
</svg>
