<svg width="44" height="20" viewBox="0 0 44 20" fill="none" xmlns="http://www.w3.org/2000/svg">
<path d="M10.9266 19.6502C8.74323 19.6502 6.82656 19.2419 5.17656 18.4252C3.54323 17.6085 2.26823 16.4669 1.35156 15.0002C0.451563 13.5169 0.00156255 11.7919 0.00156255 9.82519C0.00156255 7.85853 0.451563 6.14186 1.35156 4.67519C2.26823 3.19186 3.54323 2.04186 5.17656 1.22519C6.82656 0.408528 8.74323 0.000195146 10.9266 0.000195146C13.1099 0.000195146 15.0182 0.408528 16.6516 1.22519C18.3016 2.04186 19.5766 3.19186 20.4766 4.67519C21.3932 6.14186 21.8516 7.85853 21.8516 9.82519C21.8516 11.7919 21.3932 13.5169 20.4766 15.0002C19.5766 16.4669 18.3016 17.6085 16.6516 18.4252C15.0182 19.2419 13.1099 19.6502 10.9266 19.6502ZM10.9516 14.4502C12.3682 14.4502 13.4682 14.0502 14.2516 13.2502C15.0516 12.4335 15.4516 11.2919 15.4516 9.82519C15.4516 8.34186 15.0516 7.20019 14.2516 6.40019C13.4682 5.6002 12.3599 5.2002 10.9266 5.2002C9.5099 5.2002 8.40156 5.6002 7.60156 6.40019C6.80156 7.20019 6.40156 8.33353 6.40156 9.80019C6.40156 11.2835 6.80156 12.4335 7.60156 13.2502C8.40156 14.0502 9.51823 14.4502 10.9516 14.4502ZM23.4588 7.40019C23.5755 5.86686 24.0921 4.55019 25.0088 3.45019C25.9255 2.33353 27.1421 1.48353 28.6588 0.900194C30.1921 0.300195 31.9088 0.000195146 33.8088 0.000195146C35.6255 0.000195146 37.2088 0.275195 38.5588 0.825195C39.9088 1.35853 40.9588 2.10853 41.7088 3.07519C42.4588 4.02519 42.8338 5.13353 42.8338 6.40019C42.8338 7.38353 42.5505 8.3002 41.9838 9.1502C41.4171 10.0002 40.5505 10.8169 39.3838 11.6002C38.2171 12.3835 36.7171 13.1585 34.8838 13.9252L30.4588 15.7752L30.4088 14.2002H43.3088V19.2002H24.0088V14.8002L32.1088 10.4752C33.2755 9.85853 34.1671 9.35019 34.7838 8.95019C35.4005 8.55019 35.8255 8.19186 36.0588 7.8752C36.3088 7.54186 36.4338 7.18353 36.4338 6.80019C36.4338 6.38353 36.3171 6.03353 36.0838 5.75019C35.8671 5.46686 35.5421 5.2502 35.1088 5.1002C34.6755 4.93353 34.1588 4.8502 33.5588 4.8502C32.7255 4.8502 32.0421 4.96686 31.5088 5.2002C30.9921 5.43353 30.6005 5.74186 30.3338 6.1252C30.0671 6.50853 29.9088 6.93353 29.8588 7.40019H23.4588Z" fill="#FF6B01"/>
</svg>
