<svg width="35" height="20" viewBox="0 0 35 20" fill="none" xmlns="http://www.w3.org/2000/svg">
<path d="M10.9266 19.6502C8.74323 19.6502 6.82656 19.2419 5.17656 18.4252C3.54323 17.6085 2.26823 16.4669 1.35156 15.0002C0.451563 13.5169 0.00156255 11.7919 0.00156255 9.82519C0.00156255 7.85853 0.451563 6.14186 1.35156 4.67519C2.26823 3.19186 3.54323 2.04186 5.17656 1.22519C6.82656 0.408528 8.74323 0.000195146 10.9266 0.000195146C13.1099 0.000195146 15.0182 0.408528 16.6516 1.22519C18.3016 2.04186 19.5766 3.19186 20.4766 4.67519C21.3932 6.14186 21.8516 7.85853 21.8516 9.82519C21.8516 11.7919 21.3932 13.5169 20.4766 15.0002C19.5766 16.4669 18.3016 17.6085 16.6516 18.4252C15.0182 19.2419 13.1099 19.6502 10.9266 19.6502ZM10.9516 14.4502C12.3682 14.4502 13.4682 14.0502 14.2516 13.2502C15.0516 12.4335 15.4516 11.2919 15.4516 9.82519C15.4516 8.34186 15.0516 7.20019 14.2516 6.40019C13.4682 5.6002 12.3599 5.2002 10.9266 5.2002C9.5099 5.2002 8.40156 5.6002 7.60156 6.40019C6.80156 7.20019 6.40156 8.33353 6.40156 9.80019C6.40156 11.2835 6.80156 12.4335 7.60156 13.2502C8.40156 14.0502 9.51823 14.4502 10.9516 14.4502ZM34.9588 0.450194V19.2002H28.6088V2.80019L31.4338 5.4252L23.1838 6.87519V1.95019L30.2588 0.450194H34.9588Z" fill="#FF6B01"/>
</svg>
