<svg width="100" height="100" viewBox="0 0 100 100" fill="none" xmlns="http://www.w3.org/2000/svg">
<path d="M17.7086 1.25H82.2914C92.0836 1.25 100 9.16641 100 18.9586V81.0414C100 90.8336 92.0836 98.75 82.2914 98.75H17.7086C7.91641 98.75 0 90.8336 0 81.0414V18.9586C0 9.16641 7.91641 1.25 17.7086 1.25Z" fill="#001E36"/>
<path d="M35.8336 26.0415C34.5836 26.0415 33.3336 26.0415 32.0422 26.0837C30.75 26.1251 29.5414 26.1251 28.4164 26.1673C27.2914 26.2087 26.25 26.2087 25.25 26.2501C24.2914 26.2915 23.625 26.2915 22.9164 26.2915C22.625 26.2915 22.5 26.4579 22.5 26.7501V69.6251C22.5 70.0001 22.6664 70.1673 23 70.1673H31.0836C31.375 70.1251 31.5836 69.8751 31.5414 69.5837V56.2087C32.3328 56.2087 32.9164 56.2087 33.3336 56.2501C33.75 56.2915 34.4164 56.2915 35.4164 56.2915C38.8336 56.2915 41.9586 55.9165 44.7914 54.8751C47.5 53.8751 49.8336 52.1251 51.5 49.7915C53.1667 47.4582 54 44.4998 54 40.9165C54 39.0415 53.6672 37.2501 53.0422 35.5001C52.3799 33.7172 51.3425 32.0973 50 30.7501C48.4155 29.2108 46.5082 28.0435 44.4164 27.3329C42.0828 26.4579 39.25 26.0415 35.8336 26.0415ZM36.7633 34.2485C38.2477 34.2767 39.693 34.536 41.0414 35.0829C42.25 35.5415 43.25 36.3751 43.9586 37.4579C44.6231 38.5786 44.9556 39.865 44.9172 41.1673C44.9172 43.0001 44.5 44.4173 43.625 45.4587C42.7078 46.5001 41.5414 47.2923 40.2086 47.6673C38.6664 48.1673 37.0414 48.4165 35.4164 48.4165H33.2078C32.7078 48.4165 32.1672 48.3751 31.5836 48.3337V34.3337C31.875 34.2915 32.4586 34.2501 33.2922 34.2923C34.0836 34.2501 35.0414 34.2501 36.125 34.2501C36.3385 34.2449 36.5513 34.2444 36.7633 34.2485ZM71.7086 36.3759C68.75 36.3759 66.2914 36.8337 64.3336 37.8337C62.5422 38.6673 61 40.0001 59.9586 41.6665C59.0422 43.2087 58.5414 44.9165 58.5414 46.7087C58.5058 48.1827 58.8351 49.6427 59.5 50.9587C60.2793 52.36 61.3612 53.5698 62.6672 54.5001C64.5001 55.7537 66.4891 56.7623 68.5836 57.5001C70.625 58.2915 72 58.9165 72.6672 59.4579C73.3336 60.0001 73.6672 60.5415 73.6672 61.1251C73.6672 61.8751 73.2086 62.5837 72.5422 62.8751C71.7922 63.2501 70.6672 63.4587 69.0836 63.4587C67.4172 63.4587 65.75 63.2501 64.1664 62.8337C62.3481 62.4276 60.6048 61.7388 59 60.7923C58.875 60.7087 58.75 60.6673 58.625 60.7509C58.5 60.8337 58.4586 61.0001 58.4586 61.1251V68.3751C58.4172 68.7087 58.625 69.0001 58.9172 69.1665C60.2684 69.7977 61.6976 70.2462 63.1672 70.5001C65.0422 70.8751 66.9164 71.0415 68.8328 71.0415C71.8328 71.0415 74.3336 70.5837 76.375 69.7087C78.25 68.9587 79.875 67.6673 81.0414 66.0001C82.1338 64.3611 82.7007 62.4281 82.6664 60.4587C82.7075 58.971 82.3784 57.4963 81.7086 56.1673C80.9164 54.7501 79.7914 53.5837 78.4164 52.7087C76.4049 51.4455 74.2511 50.4243 72 49.6665C70.9947 49.2504 70.0076 48.7917 69.0414 48.2915C68.5 48.0001 68 47.6251 67.625 47.1665C67.375 46.8329 67.2086 46.4587 67.2086 46.0837C67.2086 45.7087 67.3336 45.2923 67.5414 44.9587C67.8336 44.5423 68.2914 44.2501 68.8328 44.1251C69.625 43.9173 70.5 43.7915 71.3328 43.8329C72.9164 43.8329 74.4578 44.0415 76 44.3751C77.4172 44.6665 78.75 45.1251 80 45.7923C80.1664 45.8751 80.375 45.8751 80.75 45.7923C80.8151 45.744 80.8679 45.6811 80.9042 45.6086C80.9404 45.5361 80.959 45.4561 80.9586 45.3751V38.5837C80.9586 38.4165 80.9164 38.2501 80.875 38.0837C80.7914 37.9173 80.625 37.7501 80.4586 37.7087C79.3094 37.239 78.1052 36.9169 76.875 36.7501C75.1641 36.501 73.4375 36.3764 71.7086 36.3759Z" fill="#31A8FF"/>
</svg>
