<svg width="47" height="47" viewBox="0 0 47 47" fill="none" xmlns="http://www.w3.org/2000/svg">
<rect width="47" height="47" rx="23.5" fill="white"/>
<path d="M16.5548 28.3582C15.9786 28.9345 15.9786 29.8687 16.5548 30.4449C17.131 31.0211 18.0653 31.0211 18.6415 30.4449L17.5981 29.4016L16.5548 28.3582ZM30.8776 17.5977C30.8776 16.7828 30.217 16.1222 29.4021 16.1222H16.1227C15.3078 16.1222 14.6472 16.7828 14.6472 17.5977C14.6472 18.4125 15.3078 19.0731 16.1227 19.0731H27.9266V30.8771C27.9266 31.692 28.5872 32.3526 29.4021 32.3526C30.217 32.3526 30.8776 31.692 30.8776 30.8771V17.5977ZM17.5981 29.4016L18.6415 30.4449L30.4454 18.641L29.4021 17.5977L28.3587 16.5543L16.5548 28.3582L17.5981 29.4016Z" fill="#202938"/>
</svg>
