<svg width="50" height="50" viewBox="0 0 50 50" fill="none" xmlns="http://www.w3.org/2000/svg">
<path d="M25.0015 4.16895C13.5015 4.16895 4.16821 13.5023 4.16821 25.0023C4.16821 36.5023 13.5015 45.8356 25.0015 45.8356C36.5015 45.8356 45.8349 36.5023 45.8349 25.0023C45.8349 13.5023 36.5015 4.16895 25.0015 4.16895ZM34.6682 18.3356C34.3557 21.6273 33.0015 29.6273 32.314 33.3148C32.0224 34.8773 31.439 35.3981 30.8974 35.4606C29.689 35.5648 28.7724 34.6689 27.6057 33.8981C25.7724 32.6898 24.7307 31.9398 22.9599 30.7731C20.8974 29.4189 22.2307 28.6689 23.4182 27.4606C23.7307 27.1481 29.064 22.2939 29.1682 21.8564C29.1827 21.7902 29.1808 21.7214 29.1626 21.656C29.1445 21.5907 29.1106 21.5308 29.064 21.4814C28.939 21.3773 28.7724 21.4189 28.6265 21.4398C28.439 21.4814 25.5224 23.4189 19.8349 27.2523C19.0015 27.8148 18.2515 28.1064 17.5849 28.0856C16.8349 28.0648 15.4182 27.6689 14.3557 27.3148C13.0432 26.8981 12.0224 26.6689 12.1057 25.9398C12.1474 25.5648 12.6682 25.1898 13.6474 24.7939C19.7307 22.1481 23.7724 20.3981 25.7932 19.5648C31.5849 17.1481 32.7724 16.7314 33.5641 16.7314C33.7307 16.7314 34.1265 16.7731 34.3765 16.9814C34.5849 17.1481 34.6474 17.3773 34.6682 17.5439C34.6474 17.6689 34.689 18.0439 34.6682 18.3356Z" fill="white"/>
</svg>
