<svg width="50" height="50" viewBox="0 0 50 50" fill="none" xmlns="http://www.w3.org/2000/svg">
<path d="M25.0048 4.16895C36.511 4.16895 45.8381 13.496 45.8381 25.0023C45.8381 36.5085 36.511 45.8356 25.0048 45.8356C21.323 45.842 17.706 44.8676 14.5256 43.0127L4.17975 45.8356L6.99642 35.4856C5.14008 32.3042 4.16497 28.6856 4.17142 25.0023C4.17142 13.496 13.4985 4.16895 25.0048 4.16895ZM17.9048 15.2106L17.4881 15.2273C17.2187 15.2458 16.9555 15.3166 16.7131 15.4356C16.4872 15.5638 16.2809 15.7237 16.1006 15.9106C15.8506 16.146 15.7089 16.3502 15.5568 16.5481C14.7863 17.55 14.3714 18.78 14.3777 20.0439C14.3818 21.0648 14.6485 22.0585 15.0652 22.9877C15.9173 24.8669 17.3193 26.8564 19.1693 28.7002C19.6152 29.1439 20.0527 29.5898 20.5235 30.0044C22.8223 32.0281 25.5616 33.4876 28.5235 34.2669L29.7068 34.4481C30.0923 34.4689 30.4777 34.4398 30.8652 34.421C31.4718 34.389 32.0641 34.2248 32.6006 33.9398C32.8732 33.7988 33.1394 33.6459 33.3985 33.4814C33.3985 33.4814 33.4867 33.4217 33.6589 33.2939C33.9402 33.0856 34.1131 32.9377 34.3464 32.6939C34.5214 32.5134 34.6673 32.3037 34.7839 32.0648C34.9464 31.7252 35.1089 31.0773 35.1756 30.5377C35.2256 30.1252 35.211 29.9002 35.2048 29.7606C35.1964 29.5377 35.011 29.3064 34.8089 29.2085L33.5964 28.6648C33.5964 28.6648 31.7839 27.8752 30.6756 27.371C30.5596 27.3205 30.4353 27.2916 30.3089 27.2856C30.1664 27.2707 30.0223 27.2866 29.8864 27.3323C29.7505 27.3779 29.6261 27.4522 29.5214 27.5502C29.511 27.546 29.3714 27.6648 27.8652 29.4898C27.7787 29.6059 27.6596 29.6937 27.5231 29.742C27.3866 29.7902 27.2387 29.7967 27.0985 29.7606C26.9627 29.7244 26.8297 29.6785 26.7006 29.6231C26.4423 29.5148 26.3527 29.4731 26.1756 29.3981C24.9795 28.8771 23.8723 28.172 22.8943 27.3085C22.6318 27.0794 22.3881 26.8294 22.1381 26.5877C21.3185 25.8027 20.6042 24.9148 20.0131 23.946L19.8902 23.7481C19.8032 23.6144 19.7319 23.4711 19.6777 23.321C19.5985 23.0148 19.8048 22.7689 19.8048 22.7689C19.8048 22.7689 20.311 22.2148 20.5464 21.9148C20.7756 21.6231 20.9693 21.3398 21.0943 21.1377C21.3402 20.7419 21.4173 20.3356 21.2881 20.021C20.7048 18.596 20.102 17.1787 19.4798 15.7689C19.3568 15.4898 18.9923 15.2898 18.661 15.2502C18.5485 15.2363 18.436 15.2252 18.3235 15.2169C18.0438 15.2008 17.7633 15.2036 17.4839 15.2252L17.9048 15.2106Z" fill="white"/>
</svg>
